<svg width="104" height="98" viewBox="0 0 104 98" fill="none" xmlns="http://www.w3.org/2000/svg">
<path fill-rule="evenodd" clip-rule="evenodd" d="M51.8157 0C39.5104 0.00622344 27.6086 4.25456 18.2385 11.9854C8.86833 19.7162 2.64089 30.4253 0.669644 42.1979C-1.3016 53.9705 1.11188 66.0388 7.47859 76.2449C13.8453 86.4511 23.75 94.1295 35.4217 97.9072C37.9967 98.3731 38.9666 96.8175 38.9666 95.4947C38.9666 94.172 38.9151 90.3369 38.8979 86.1441C24.4781 89.1805 21.4311 80.2126 21.4311 80.2126C19.0793 74.3892 15.6803 72.8585 15.6803 72.8585C10.9767 69.7472 16.0323 69.8054 16.0323 69.8054C21.2423 70.1631 23.9803 74.9882 23.9803 74.9882C28.5981 82.6667 36.1084 80.4455 39.061 79.1477C39.5245 75.895 40.8721 73.6821 42.357 72.4259C30.8383 71.1614 18.7359 66.8521 18.7359 47.6018C18.6646 42.6093 20.576 37.7813 24.0747 34.1166C23.5426 32.8521 21.7658 27.7441 24.5811 20.806C24.5811 20.806 28.9328 19.4583 38.8379 25.9555C47.3338 23.7037 56.2976 23.7037 64.7935 25.9555C74.69 19.4583 79.033 20.806 79.033 20.806C81.8569 27.7275 80.0802 32.8354 79.5481 34.1166C83.0579 37.7819 84.9733 42.6183 84.8954 47.6184C84.8954 66.9104 72.7673 71.1614 61.2315 72.401C63.0854 73.9649 64.742 77.018 64.742 81.71C64.742 88.4318 64.6819 93.8392 64.6819 95.4947C64.6819 96.8341 65.6175 98.3981 68.2439 97.9072C79.917 94.1291 89.8227 86.4493 96.1893 76.2414C102.556 66.0335 104.968 53.9634 102.995 42.1897C101.021 30.416 94.7906 19.7068 85.4174 11.9773C76.0442 4.24782 64.1396 0.00227871 51.8328 0H51.8157Z" fill="white"/>
</svg>
