<svg width="104" height="98" viewBox="0 0 104 98" fill="none" xmlns="http://www.w3.org/2000/svg">
<path d="M95.9942 0H7.65362C3.42186 0 0 3.1582 0 7.06289V90.918C0 94.8227 3.42186 98 7.65362 98H95.9942C100.226 98 103.668 94.8227 103.668 90.9371V7.06289C103.668 3.1582 100.226 0 95.9942 0ZM30.7562 83.5105H15.368V36.7309H30.7562V83.5105ZM23.0621 30.357C18.1217 30.357 14.1329 26.5863 14.1329 21.9352C14.1329 17.284 18.1217 13.5133 23.0621 13.5133C27.9823 13.5133 31.9711 17.284 31.9711 21.9352C31.9711 26.5672 27.9823 30.357 23.0621 30.357ZM88.3406 83.5105H72.9726V60.7715C72.9726 55.3547 72.8714 48.3684 64.9748 48.3684C56.977 48.3684 55.7621 54.2828 55.7621 60.3887V83.5105H40.4144V36.7309H55.1547V43.1238H55.3571C57.4022 39.4488 62.4236 35.5633 69.895 35.5633C85.4654 35.5633 88.3406 45.2484 88.3406 57.843V83.5105Z" fill="white"/>
</svg>
