<svg width="104" height="98" viewBox="0 0 104 98" fill="none" xmlns="http://www.w3.org/2000/svg">
<path d="M0 0V98H103.68V0H0ZM86.1377 23.2094L80.5834 28.2406C80.0974 28.5906 79.866 29.1594 79.9586 29.7063V66.7406C79.866 67.3094 80.0974 67.8781 80.5834 68.2062L86.022 73.2375V74.3531H58.7134V73.2812L64.3371 68.1188C64.8926 67.5938 64.8926 67.4406 64.8926 66.6531V36.7062L49.248 74.2438H47.142L28.9286 36.7062V61.8625C28.7666 62.9125 29.16 63.9844 29.9469 64.75L37.26 73.1281V74.2438H16.4777V73.1281L23.7909 64.75C24.5777 63.9844 24.9249 62.9125 24.7397 61.8625V32.7687C24.8323 31.9594 24.5083 31.1719 23.8603 30.625L17.3571 23.2094V22.0938H37.5609L53.1591 54.4688L66.8829 22.1156H86.1377V23.2094Z" fill="white"/>
</svg>
