<svg width="104" height="98" viewBox="0 0 104 98" fill="none" xmlns="http://www.w3.org/2000/svg">
<path d="M59.4007 0.00219349C58.4773 0.0267433 57.5691 0.197408 56.7284 0.504357C55.8877 0.811306 55.1311 1.24847 54.5023 1.79067L26.9468 25.4247L7.30224 42.2724C4.44119 44.7127 2.331 47.6546 1.13973 50.8636C0.884438 51.553 0.671796 52.2521 0.50258 52.9583C-0.261166 56.1539 -0.153361 59.444 0.818606 62.6031C1.25063 64.0282 1.84614 65.4184 2.59753 66.7558C4.15579 69.5342 6.35364 72.0527 9.07606 74.1792L30.8768 91.3004L31.0756 91.4555C42.534 100.296 60.9043 100.165 72.1742 91.1534L84.3871 81.3862C87.1396 79.1812 87.1396 75.6124 84.4024 73.4033C83.751 72.8787 82.9767 72.4621 82.1241 72.1775C81.2714 71.8929 80.357 71.7458 79.4333 71.7446C78.5095 71.7435 77.5946 71.8883 76.7408 72.1709C75.887 72.4534 75.1112 72.868 74.4578 73.3911L62.2449 83.1583C59.3974 85.4096 55.5679 86.6848 51.5673 86.7138C47.5667 86.7427 43.709 85.5232 40.8112 83.3135L40.7093 83.2359L18.9136 66.1147C15.5903 63.5014 13.9592 60.1163 14.0815 56.8742C14.1058 56.1552 14.2184 55.4399 14.4179 54.7386C14.9302 52.9598 16.0185 51.3205 17.5731 49.9857L37.2126 33.134C42.6054 28.5035 53.544 27.9482 59.7931 31.9988L77.6384 43.5586C80.6611 45.5186 85.0854 45.1388 87.527 42.7134C88.6974 41.5482 89.2435 40.0589 89.0457 38.5718C88.848 37.0847 87.9224 35.721 86.4719 34.7795L68.6317 23.2198C64.5539 20.5779 59.63 18.9527 54.4921 18.3116L64.7629 9.49992C65.7097 8.68441 66.3346 7.66299 66.5591 6.56393C66.7836 5.46486 66.5977 4.33716 66.0248 3.32243C65.4519 2.30771 64.5176 1.45121 63.339 0.86049C62.1605 0.269771 60.7903 -0.0288274 59.4007 0.00219349ZM44.7921 52.3295C43.8675 52.3295 42.952 52.4755 42.0979 52.7592C41.2438 53.0429 40.4679 53.4587 39.8146 53.9828C39.1613 54.5069 38.6434 55.1291 38.2905 55.8137C37.9376 56.4983 37.7566 57.2319 37.758 57.9726C37.7566 58.7133 37.9376 59.4469 38.2905 60.1315C38.6434 60.8161 39.1613 61.4383 39.8146 61.9624C40.4679 62.4865 41.2438 62.9023 42.0979 63.186C42.952 63.4697 43.8675 63.6157 44.7921 63.6157H96.6459C97.5705 63.6157 98.486 63.4697 99.3401 63.186C100.194 62.9023 100.97 62.4865 101.623 61.9624C102.277 61.4383 102.795 60.8161 103.147 60.1315C103.5 59.4469 103.681 58.7133 103.68 57.9726C103.681 57.2319 103.5 56.4983 103.147 55.8137C102.795 55.1291 102.277 54.5069 101.623 53.9828C100.97 53.4587 100.194 53.0429 99.3401 52.7592C98.486 52.4755 97.5705 52.3295 96.6459 52.3295H44.7921Z" fill="white"/>
</svg>
