<svg width="104" height="98" viewBox="0 0 104 98" fill="none" xmlns="http://www.w3.org/2000/svg">
<path d="M93.0138 24.4233C93.0796 25.4952 93.0796 26.5672 93.0796 27.6391C93.0796 60.3311 71.701 98 32.6272 98C20.5893 98 9.40667 93.942 0 86.8986C1.71036 87.1281 3.35471 87.2047 5.13088 87.2047C15.0636 87.2047 24.2072 83.3001 31.5089 76.6392C22.1681 76.4094 14.3401 69.2891 11.6431 59.489C12.9588 59.7186 14.2743 59.8718 15.6559 59.8718C17.5634 59.8718 19.4712 59.5654 21.2472 59.0297C11.5117 56.7327 4.20979 46.7796 4.20979 34.7593V34.4532C7.03825 36.2907 10.3276 37.4391 13.8137 37.5921C8.09075 33.1514 4.3414 25.5718 4.3414 16.9967C4.3414 12.403 5.3937 8.1921 7.23567 4.51707C17.6948 19.5233 33.4165 29.3231 51.0455 30.3952C50.7167 28.5577 50.5193 26.6438 50.5193 24.7297C50.5193 11.1014 59.9918 0 71.7664 0C77.884 0 83.4095 2.98593 87.2907 7.80937C92.0925 6.73755 96.6972 4.67026 100.776 1.83751C99.1968 7.57983 95.8421 12.4033 91.4349 15.4656C95.7107 14.9299 99.8548 13.5515 103.67 11.6376C100.776 16.5374 97.158 20.9013 93.0138 24.4233Z" fill="white"/>
</svg>
