<svg width="111" height="98" viewBox="0 0 111 98" fill="none" xmlns="http://www.w3.org/2000/svg">
<path d="M109.05 21.1458C109.05 21.1458 107.975 11.539 104.662 7.32074C100.466 1.76895 95.7766 1.74174 93.6253 1.41516C78.2218 -7.12348e-07 55.0952 0 55.0952 0H55.0522C55.0522 0 31.9255 -7.12348e-07 16.5221 1.41516C14.3708 1.74174 9.68092 1.76895 5.48586 7.32074C2.17283 11.539 1.11868 21.1458 1.11868 21.1458C1.11868 21.1458 0 32.4399 0 43.7068V54.266C0 65.5329 1.09717 76.827 1.09717 76.827C1.09717 76.827 2.17283 86.4338 5.46434 90.652C9.65941 96.2038 15.1668 96.0133 17.6193 96.6121C26.4397 97.6734 55.0737 98 55.0737 98C55.0737 98 78.2218 97.9456 93.6253 96.5576C95.7766 96.231 100.466 96.2038 104.662 90.652C107.975 86.4338 109.05 76.827 109.05 76.827C109.05 76.827 110.147 65.5601 110.147 54.266V43.7068C110.147 32.4399 109.05 21.1458 109.05 21.1458ZM43.6932 67.0841V27.9222L73.4459 47.5712L43.6932 67.0841Z" fill="white"/>
</svg>
